<svg width="26" height="26" viewBox="0 0 26 26" fill="none" xmlns="http://www.w3.org/2000/svg">
<g clip-path="url(#clip0_2118_3407)">
<path fill-rule="evenodd" clip-rule="evenodd" d="M-1.66882e-07 20.203C-0.000131616 20.9645 0.149789 21.7185 0.441194 22.422C0.732599 23.1255 1.15978 23.7647 1.69832 24.3031C2.23686 24.8415 2.8762 25.2684 3.57981 25.5596C4.28343 25.8507 5.03752 26.0004 5.799 26L20.203 26C20.9643 26.0003 21.7183 25.8505 22.4217 25.5593C23.1252 25.268 23.7643 24.841 24.3027 24.3027C24.841 23.7643 25.268 23.1252 25.5593 22.4217C25.8505 21.7183 26.0003 20.9643 26 20.203L26 5.797C26.0003 5.03565 25.8505 4.28172 25.5593 3.57827C25.268 2.87483 24.841 2.23567 24.3027 1.69731C23.7643 1.15896 23.1252 0.731967 22.4217 0.440734C21.7183 0.149501 20.9643 -0.00026413 20.203 -8.83101e-07L5.8 -2.53526e-07C5.03844 -0.000526648 4.28424 0.149038 3.58051 0.440142C2.87678 0.731245 2.23731 1.15818 1.69867 1.69655C1.16002 2.23491 0.732756 2.87416 0.441289 3.57774C0.149821 4.28131 -0.000132406 5.03544 -7.96589e-07 5.797L-1.66882e-07 20.203ZM1 20.203L0.999999 5.797C0.997351 5.16614 1.11969 4.541 1.35995 3.95768C1.60021 3.37435 1.95363 2.84439 2.39981 2.3984C2.84599 1.9524 3.3761 1.5992 3.95953 1.35918C4.54295 1.11916 5.16814 0.997089 5.799 1L20.203 0.999999C20.8338 0.997087 21.4589 1.11918 22.0422 1.35922C22.6255 1.59926 23.1555 1.95249 23.6015 2.39851C24.0475 2.84454 24.4007 3.37451 24.6408 3.95783C24.8808 4.54114 25.0029 5.16623 25 5.797L25 20.203C25.0029 20.8338 24.8808 21.4589 24.6408 22.0422C24.4007 22.6255 24.0475 23.1555 23.6015 23.6015C23.1555 24.0475 22.6255 24.4007 22.0422 24.6408C21.4589 24.8808 20.8338 25.0029 20.203 25L5.8 25C5.16906 25.003 4.54376 24.8811 3.96022 24.6411C3.37668 24.4012 2.84645 24.048 2.40016 23.602C1.95388 23.1559 1.60036 22.6259 1.36004 22.0426C1.11972 21.4592 0.997351 20.8339 1 20.203ZM11.3703 16.9906C11.1694 17.1802 11.1695 17.4998 11.3705 17.6893C11.5555 17.8638 11.8445 17.8637 12.0294 17.6892L16.718 13.266C16.871 13.1217 16.871 12.8783 16.718 12.734L12.0294 8.3108C11.8445 8.13629 11.5555 8.13624 11.3705 8.3107C11.1695 8.50022 11.1694 8.81983 11.3703 9.00941L15.6 13L11.3703 16.9906Z" fill="#181818"/>
</g>
<defs>
<clipPath id="clip0_2118_3407">
<rect width="26" height="26" fill="white" transform="translate(0 26) rotate(-90)"/>
</clipPath>
</defs>
</svg>
