<svg width="32" height="32" viewBox="0 0 32 32" fill="none" xmlns="http://www.w3.org/2000/svg">
<path d="M24.5913 22.3652C25.2173 22.9913 25.2173 23.9652 24.5913 24.5913C24.2782 24.9044 23.8956 25.0435 23.4782 25.0435C23.0608 25.0435 22.6782 24.9044 22.3652 24.5913L16 18.2261L9.63474 24.5913C9.3217 24.9044 8.93909 25.0435 8.5217 25.0435C8.1043 25.0435 7.7217 24.9044 7.40865 24.5913C6.78257 23.9652 6.78257 22.9913 7.40865 22.3652L13.7739 16L7.40865 9.6348C6.78257 9.00871 6.78257 8.0348 7.40865 7.40871C8.03474 6.78263 9.00865 6.78263 9.63474 7.40871L16 13.7739L22.3652 7.40871C22.9913 6.78263 23.9652 6.78263 24.5913 7.40871C25.2173 8.0348 25.2173 9.00871 24.5913 9.6348L18.226 16L24.5913 22.3652Z" fill="#FAFAFA"/>
</svg>
