<svg width="142" height="318" viewBox="0 0 142 318" fill="none" xmlns="http://www.w3.org/2000/svg">
<path d="M10 5C10 7.76142 7.76142 10 5 10C2.23858 10 0 7.76142 0 5C0 2.23858 2.23858 0 5 0C7.76142 0 10 2.23858 10 5Z" fill="#9EB9A2"/>
<path d="M32 5C32 7.76142 29.7614 10 27 10C24.2386 10 22 7.76142 22 5C22 2.23858 24.2386 0 27 0C29.7614 0 32 2.23858 32 5Z" fill="#9EB9A2"/>
<path d="M54 5C54 7.76142 51.7614 10 49 10C46.2386 10 44 7.76142 44 5C44 2.23858 46.2386 0 49 0C51.7614 0 54 2.23858 54 5Z" fill="#9EB9A2"/>
<path d="M76 5C76 7.76142 73.7614 10 71 10C68.2386 10 66 7.76142 66 5C66 2.23858 68.2386 0 71 0C73.7614 0 76 2.23858 76 5Z" fill="#9EB9A2"/>
<path d="M98 5C98 7.76142 95.7614 10 93 10C90.2386 10 88 7.76142 88 5C88 2.23858 90.2386 0 93 0C95.7614 0 98 2.23858 98 5Z" fill="#9EB9A2"/>
<path d="M120 5C120 7.76142 117.761 10 115 10C112.239 10 110 7.76142 110 5C110 2.23858 112.239 0 115 0C117.761 0 120 2.23858 120 5Z" fill="#9EB9A2"/>
<path d="M142 5C142 7.76142 139.761 10 137 10C134.239 10 132 7.76142 132 5C132 2.23858 134.239 0 137 0C139.761 0 142 2.23858 142 5Z" fill="#9EB9A2"/>
<path d="M10 27C10 29.7614 7.76142 32 5 32C2.23858 32 0 29.7614 0 27C0 24.2386 2.23858 22 5 22C7.76142 22 10 24.2386 10 27Z" fill="#9EB9A2"/>
<path d="M32 27C32 29.7614 29.7614 32 27 32C24.2386 32 22 29.7614 22 27C22 24.2386 24.2386 22 27 22C29.7614 22 32 24.2386 32 27Z" fill="#9EB9A2"/>
<path d="M54 27C54 29.7614 51.7614 32 49 32C46.2386 32 44 29.7614 44 27C44 24.2386 46.2386 22 49 22C51.7614 22 54 24.2386 54 27Z" fill="#9EB9A2"/>
<path d="M76 27C76 29.7614 73.7614 32 71 32C68.2386 32 66 29.7614 66 27C66 24.2386 68.2386 22 71 22C73.7614 22 76 24.2386 76 27Z" fill="#9EB9A2"/>
<path d="M98 27C98 29.7614 95.7614 32 93 32C90.2386 32 88 29.7614 88 27C88 24.2386 90.2386 22 93 22C95.7614 22 98 24.2386 98 27Z" fill="#9EB9A2"/>
<path d="M120 27C120 29.7614 117.761 32 115 32C112.239 32 110 29.7614 110 27C110 24.2386 112.239 22 115 22C117.761 22 120 24.2386 120 27Z" fill="#9EB9A2"/>
<path d="M142 27C142 29.7614 139.761 32 137 32C134.239 32 132 29.7614 132 27C132 24.2386 134.239 22 137 22C139.761 22 142 24.2386 142 27Z" fill="#9EB9A2"/>
<path d="M10 49C10 51.7614 7.76142 54 5 54C2.23858 54 0 51.7614 0 49C0 46.2386 2.23858 44 5 44C7.76142 44 10 46.2386 10 49Z" fill="#9EB9A2"/>
<path d="M32 49C32 51.7614 29.7614 54 27 54C24.2386 54 22 51.7614 22 49C22 46.2386 24.2386 44 27 44C29.7614 44 32 46.2386 32 49Z" fill="#9EB9A2"/>
<path d="M54 49C54 51.7614 51.7614 54 49 54C46.2386 54 44 51.7614 44 49C44 46.2386 46.2386 44 49 44C51.7614 44 54 46.2386 54 49Z" fill="#9EB9A2"/>
<path d="M76 49C76 51.7614 73.7614 54 71 54C68.2386 54 66 51.7614 66 49C66 46.2386 68.2386 44 71 44C73.7614 44 76 46.2386 76 49Z" fill="#9EB9A2"/>
<path d="M98 49C98 51.7614 95.7614 54 93 54C90.2386 54 88 51.7614 88 49C88 46.2386 90.2386 44 93 44C95.7614 44 98 46.2386 98 49Z" fill="#9EB9A2"/>
<path d="M120 49C120 51.7614 117.761 54 115 54C112.239 54 110 51.7614 110 49C110 46.2386 112.239 44 115 44C117.761 44 120 46.2386 120 49Z" fill="#9EB9A2"/>
<path d="M142 49C142 51.7614 139.761 54 137 54C134.239 54 132 51.7614 132 49C132 46.2386 134.239 44 137 44C139.761 44 142 46.2386 142 49Z" fill="#9EB9A2"/>
<path d="M10 71C10 73.7614 7.76142 76 5 76C2.23858 76 0 73.7614 0 71C0 68.2386 2.23858 66 5 66C7.76142 66 10 68.2386 10 71Z" fill="#9EB9A2"/>
<path d="M32 71C32 73.7614 29.7614 76 27 76C24.2386 76 22 73.7614 22 71C22 68.2386 24.2386 66 27 66C29.7614 66 32 68.2386 32 71Z" fill="#9EB9A2"/>
<path d="M54 71C54 73.7614 51.7614 76 49 76C46.2386 76 44 73.7614 44 71C44 68.2386 46.2386 66 49 66C51.7614 66 54 68.2386 54 71Z" fill="#9EB9A2"/>
<path d="M76 71C76 73.7614 73.7614 76 71 76C68.2386 76 66 73.7614 66 71C66 68.2386 68.2386 66 71 66C73.7614 66 76 68.2386 76 71Z" fill="#9EB9A2"/>
<path d="M98 71C98 73.7614 95.7614 76 93 76C90.2386 76 88 73.7614 88 71C88 68.2386 90.2386 66 93 66C95.7614 66 98 68.2386 98 71Z" fill="#9EB9A2"/>
<path d="M120 71C120 73.7614 117.761 76 115 76C112.239 76 110 73.7614 110 71C110 68.2386 112.239 66 115 66C117.761 66 120 68.2386 120 71Z" fill="#9EB9A2"/>
<path d="M142 71C142 73.7614 139.761 76 137 76C134.239 76 132 73.7614 132 71C132 68.2386 134.239 66 137 66C139.761 66 142 68.2386 142 71Z" fill="#9EB9A2"/>
<path d="M10 93C10 95.7614 7.76142 98 5 98C2.23858 98 0 95.7614 0 93C0 90.2386 2.23858 88 5 88C7.76142 88 10 90.2386 10 93Z" fill="#9EB9A2"/>
<path d="M32 93C32 95.7614 29.7614 98 27 98C24.2386 98 22 95.7614 22 93C22 90.2386 24.2386 88 27 88C29.7614 88 32 90.2386 32 93Z" fill="#9EB9A2"/>
<path d="M54 93C54 95.7614 51.7614 98 49 98C46.2386 98 44 95.7614 44 93C44 90.2386 46.2386 88 49 88C51.7614 88 54 90.2386 54 93Z" fill="#9EB9A2"/>
<path d="M76 93C76 95.7614 73.7614 98 71 98C68.2386 98 66 95.7614 66 93C66 90.2386 68.2386 88 71 88C73.7614 88 76 90.2386 76 93Z" fill="#9EB9A2"/>
<path d="M98 93C98 95.7614 95.7614 98 93 98C90.2386 98 88 95.7614 88 93C88 90.2386 90.2386 88 93 88C95.7614 88 98 90.2386 98 93Z" fill="#9EB9A2"/>
<path d="M120 93C120 95.7614 117.761 98 115 98C112.239 98 110 95.7614 110 93C110 90.2386 112.239 88 115 88C117.761 88 120 90.2386 120 93Z" fill="#9EB9A2"/>
<path d="M142 93C142 95.7614 139.761 98 137 98C134.239 98 132 95.7614 132 93C132 90.2386 134.239 88 137 88C139.761 88 142 90.2386 142 93Z" fill="#9EB9A2"/>
<path d="M10 115C10 117.761 7.76142 120 5 120C2.23858 120 0 117.761 0 115C0 112.239 2.23858 110 5 110C7.76142 110 10 112.239 10 115Z" fill="#9EB9A2"/>
<path d="M32 115C32 117.761 29.7614 120 27 120C24.2386 120 22 117.761 22 115C22 112.239 24.2386 110 27 110C29.7614 110 32 112.239 32 115Z" fill="#9EB9A2"/>
<path d="M54 115C54 117.761 51.7614 120 49 120C46.2386 120 44 117.761 44 115C44 112.239 46.2386 110 49 110C51.7614 110 54 112.239 54 115Z" fill="#9EB9A2"/>
<path d="M76 115C76 117.761 73.7614 120 71 120C68.2386 120 66 117.761 66 115C66 112.239 68.2386 110 71 110C73.7614 110 76 112.239 76 115Z" fill="#9EB9A2"/>
<path d="M98 115C98 117.761 95.7614 120 93 120C90.2386 120 88 117.761 88 115C88 112.239 90.2386 110 93 110C95.7614 110 98 112.239 98 115Z" fill="#9EB9A2"/>
<path d="M120 115C120 117.761 117.761 120 115 120C112.239 120 110 117.761 110 115C110 112.239 112.239 110 115 110C117.761 110 120 112.239 120 115Z" fill="#9EB9A2"/>
<path d="M142 115C142 117.761 139.761 120 137 120C134.239 120 132 117.761 132 115C132 112.239 134.239 110 137 110C139.761 110 142 112.239 142 115Z" fill="#9EB9A2"/>
<path d="M10 137C10 139.761 7.76142 142 5 142C2.23858 142 0 139.761 0 137C0 134.239 2.23858 132 5 132C7.76142 132 10 134.239 10 137Z" fill="#9EB9A2"/>
<path d="M32 137C32 139.761 29.7614 142 27 142C24.2386 142 22 139.761 22 137C22 134.239 24.2386 132 27 132C29.7614 132 32 134.239 32 137Z" fill="#9EB9A2"/>
<path d="M54 137C54 139.761 51.7614 142 49 142C46.2386 142 44 139.761 44 137C44 134.239 46.2386 132 49 132C51.7614 132 54 134.239 54 137Z" fill="#9EB9A2"/>
<path d="M76 137C76 139.761 73.7614 142 71 142C68.2386 142 66 139.761 66 137C66 134.239 68.2386 132 71 132C73.7614 132 76 134.239 76 137Z" fill="#9EB9A2"/>
<path d="M98 137C98 139.761 95.7614 142 93 142C90.2386 142 88 139.761 88 137C88 134.239 90.2386 132 93 132C95.7614 132 98 134.239 98 137Z" fill="#9EB9A2"/>
<path d="M120 137C120 139.761 117.761 142 115 142C112.239 142 110 139.761 110 137C110 134.239 112.239 132 115 132C117.761 132 120 134.239 120 137Z" fill="#9EB9A2"/>
<path d="M142 137C142 139.761 139.761 142 137 142C134.239 142 132 139.761 132 137C132 134.239 134.239 132 137 132C139.761 132 142 134.239 142 137Z" fill="#9EB9A2"/>
<path d="M10 159C10 161.761 7.76142 164 5 164C2.23858 164 0 161.761 0 159C0 156.239 2.23858 154 5 154C7.76142 154 10 156.239 10 159Z" fill="#9EB9A2"/>
<path d="M32 159C32 161.761 29.7614 164 27 164C24.2386 164 22 161.761 22 159C22 156.239 24.2386 154 27 154C29.7614 154 32 156.239 32 159Z" fill="#9EB9A2"/>
<path d="M54 159C54 161.761 51.7614 164 49 164C46.2386 164 44 161.761 44 159C44 156.239 46.2386 154 49 154C51.7614 154 54 156.239 54 159Z" fill="#9EB9A2"/>
<path d="M76 159C76 161.761 73.7614 164 71 164C68.2386 164 66 161.761 66 159C66 156.239 68.2386 154 71 154C73.7614 154 76 156.239 76 159Z" fill="#9EB9A2"/>
<path d="M98 159C98 161.761 95.7614 164 93 164C90.2386 164 88 161.761 88 159C88 156.239 90.2386 154 93 154C95.7614 154 98 156.239 98 159Z" fill="#9EB9A2"/>
<path d="M120 159C120 161.761 117.761 164 115 164C112.239 164 110 161.761 110 159C110 156.239 112.239 154 115 154C117.761 154 120 156.239 120 159Z" fill="#9EB9A2"/>
<path d="M142 159C142 161.761 139.761 164 137 164C134.239 164 132 161.761 132 159C132 156.239 134.239 154 137 154C139.761 154 142 156.239 142 159Z" fill="#9EB9A2"/>
<path d="M10 181C10 183.761 7.76142 186 5 186C2.23858 186 0 183.761 0 181C0 178.239 2.23858 176 5 176C7.76142 176 10 178.239 10 181Z" fill="#9EB9A2"/>
<path d="M32 181C32 183.761 29.7614 186 27 186C24.2386 186 22 183.761 22 181C22 178.239 24.2386 176 27 176C29.7614 176 32 178.239 32 181Z" fill="#9EB9A2"/>
<path d="M54 181C54 183.761 51.7614 186 49 186C46.2386 186 44 183.761 44 181C44 178.239 46.2386 176 49 176C51.7614 176 54 178.239 54 181Z" fill="#9EB9A2"/>
<path d="M76 181C76 183.761 73.7614 186 71 186C68.2386 186 66 183.761 66 181C66 178.239 68.2386 176 71 176C73.7614 176 76 178.239 76 181Z" fill="#9EB9A2"/>
<path d="M98 181C98 183.761 95.7614 186 93 186C90.2386 186 88 183.761 88 181C88 178.239 90.2386 176 93 176C95.7614 176 98 178.239 98 181Z" fill="#9EB9A2"/>
<path d="M120 181C120 183.761 117.761 186 115 186C112.239 186 110 183.761 110 181C110 178.239 112.239 176 115 176C117.761 176 120 178.239 120 181Z" fill="#9EB9A2"/>
<path d="M142 181C142 183.761 139.761 186 137 186C134.239 186 132 183.761 132 181C132 178.239 134.239 176 137 176C139.761 176 142 178.239 142 181Z" fill="#9EB9A2"/>
<path d="M10 203C10 205.761 7.76142 208 5 208C2.23858 208 0 205.761 0 203C0 200.239 2.23858 198 5 198C7.76142 198 10 200.239 10 203Z" fill="#9EB9A2"/>
<path d="M32 203C32 205.761 29.7614 208 27 208C24.2386 208 22 205.761 22 203C22 200.239 24.2386 198 27 198C29.7614 198 32 200.239 32 203Z" fill="#9EB9A2"/>
<path d="M54 203C54 205.761 51.7614 208 49 208C46.2386 208 44 205.761 44 203C44 200.239 46.2386 198 49 198C51.7614 198 54 200.239 54 203Z" fill="#9EB9A2"/>
<path d="M76 203C76 205.761 73.7614 208 71 208C68.2386 208 66 205.761 66 203C66 200.239 68.2386 198 71 198C73.7614 198 76 200.239 76 203Z" fill="#9EB9A2"/>
<path d="M98 203C98 205.761 95.7614 208 93 208C90.2386 208 88 205.761 88 203C88 200.239 90.2386 198 93 198C95.7614 198 98 200.239 98 203Z" fill="#9EB9A2"/>
<path d="M120 203C120 205.761 117.761 208 115 208C112.239 208 110 205.761 110 203C110 200.239 112.239 198 115 198C117.761 198 120 200.239 120 203Z" fill="#9EB9A2"/>
<path d="M142 203C142 205.761 139.761 208 137 208C134.239 208 132 205.761 132 203C132 200.239 134.239 198 137 198C139.761 198 142 200.239 142 203Z" fill="#9EB9A2"/>
<path d="M10 225C10 227.761 7.76142 230 5 230C2.23858 230 0 227.761 0 225C0 222.239 2.23858 220 5 220C7.76142 220 10 222.239 10 225Z" fill="#9EB9A2"/>
<path d="M32 225C32 227.761 29.7614 230 27 230C24.2386 230 22 227.761 22 225C22 222.239 24.2386 220 27 220C29.7614 220 32 222.239 32 225Z" fill="#9EB9A2"/>
<path d="M54 225C54 227.761 51.7614 230 49 230C46.2386 230 44 227.761 44 225C44 222.239 46.2386 220 49 220C51.7614 220 54 222.239 54 225Z" fill="#9EB9A2"/>
<path d="M76 225C76 227.761 73.7614 230 71 230C68.2386 230 66 227.761 66 225C66 222.239 68.2386 220 71 220C73.7614 220 76 222.239 76 225Z" fill="#9EB9A2"/>
<path d="M98 225C98 227.761 95.7614 230 93 230C90.2386 230 88 227.761 88 225C88 222.239 90.2386 220 93 220C95.7614 220 98 222.239 98 225Z" fill="#9EB9A2"/>
<path d="M120 225C120 227.761 117.761 230 115 230C112.239 230 110 227.761 110 225C110 222.239 112.239 220 115 220C117.761 220 120 222.239 120 225Z" fill="#9EB9A2"/>
<path d="M142 225C142 227.761 139.761 230 137 230C134.239 230 132 227.761 132 225C132 222.239 134.239 220 137 220C139.761 220 142 222.239 142 225Z" fill="#9EB9A2"/>
<path d="M10 247C10 249.761 7.76142 252 5 252C2.23858 252 0 249.761 0 247C0 244.239 2.23858 242 5 242C7.76142 242 10 244.239 10 247Z" fill="#9EB9A2"/>
<path d="M32 247C32 249.761 29.7614 252 27 252C24.2386 252 22 249.761 22 247C22 244.239 24.2386 242 27 242C29.7614 242 32 244.239 32 247Z" fill="#9EB9A2"/>
<path d="M54 247C54 249.761 51.7614 252 49 252C46.2386 252 44 249.761 44 247C44 244.239 46.2386 242 49 242C51.7614 242 54 244.239 54 247Z" fill="#9EB9A2"/>
<path d="M76 247C76 249.761 73.7614 252 71 252C68.2386 252 66 249.761 66 247C66 244.239 68.2386 242 71 242C73.7614 242 76 244.239 76 247Z" fill="#9EB9A2"/>
<path d="M98 247C98 249.761 95.7614 252 93 252C90.2386 252 88 249.761 88 247C88 244.239 90.2386 242 93 242C95.7614 242 98 244.239 98 247Z" fill="#9EB9A2"/>
<path d="M120 247C120 249.761 117.761 252 115 252C112.239 252 110 249.761 110 247C110 244.239 112.239 242 115 242C117.761 242 120 244.239 120 247Z" fill="#9EB9A2"/>
<path d="M142 247C142 249.761 139.761 252 137 252C134.239 252 132 249.761 132 247C132 244.239 134.239 242 137 242C139.761 242 142 244.239 142 247Z" fill="#9EB9A2"/>
<path d="M10 269C10 271.761 7.76142 274 5 274C2.23858 274 0 271.761 0 269C0 266.239 2.23858 264 5 264C7.76142 264 10 266.239 10 269Z" fill="#9EB9A2"/>
<path d="M32 269C32 271.761 29.7614 274 27 274C24.2386 274 22 271.761 22 269C22 266.239 24.2386 264 27 264C29.7614 264 32 266.239 32 269Z" fill="#9EB9A2"/>
<path d="M54 269C54 271.761 51.7614 274 49 274C46.2386 274 44 271.761 44 269C44 266.239 46.2386 264 49 264C51.7614 264 54 266.239 54 269Z" fill="#9EB9A2"/>
<path d="M76 269C76 271.761 73.7614 274 71 274C68.2386 274 66 271.761 66 269C66 266.239 68.2386 264 71 264C73.7614 264 76 266.239 76 269Z" fill="#9EB9A2"/>
<path d="M98 269C98 271.761 95.7614 274 93 274C90.2386 274 88 271.761 88 269C88 266.239 90.2386 264 93 264C95.7614 264 98 266.239 98 269Z" fill="#9EB9A2"/>
<path d="M120 269C120 271.761 117.761 274 115 274C112.239 274 110 271.761 110 269C110 266.239 112.239 264 115 264C117.761 264 120 266.239 120 269Z" fill="#9EB9A2"/>
<path d="M142 269C142 271.761 139.761 274 137 274C134.239 274 132 271.761 132 269C132 266.239 134.239 264 137 264C139.761 264 142 266.239 142 269Z" fill="#9EB9A2"/>
<path d="M10 291C10 293.761 7.76142 296 5 296C2.23858 296 0 293.761 0 291C0 288.239 2.23858 286 5 286C7.76142 286 10 288.239 10 291Z" fill="#9EB9A2"/>
<path d="M32 291C32 293.761 29.7614 296 27 296C24.2386 296 22 293.761 22 291C22 288.239 24.2386 286 27 286C29.7614 286 32 288.239 32 291Z" fill="#9EB9A2"/>
<path d="M54 291C54 293.761 51.7614 296 49 296C46.2386 296 44 293.761 44 291C44 288.239 46.2386 286 49 286C51.7614 286 54 288.239 54 291Z" fill="#9EB9A2"/>
<path d="M76 291C76 293.761 73.7614 296 71 296C68.2386 296 66 293.761 66 291C66 288.239 68.2386 286 71 286C73.7614 286 76 288.239 76 291Z" fill="#9EB9A2"/>
<path d="M98 291C98 293.761 95.7614 296 93 296C90.2386 296 88 293.761 88 291C88 288.239 90.2386 286 93 286C95.7614 286 98 288.239 98 291Z" fill="#9EB9A2"/>
<path d="M120 291C120 293.761 117.761 296 115 296C112.239 296 110 293.761 110 291C110 288.239 112.239 286 115 286C117.761 286 120 288.239 120 291Z" fill="#9EB9A2"/>
<path d="M142 291C142 293.761 139.761 296 137 296C134.239 296 132 293.761 132 291C132 288.239 134.239 286 137 286C139.761 286 142 288.239 142 291Z" fill="#9EB9A2"/>
<path d="M10 313C10 315.761 7.76142 318 5 318C2.23858 318 0 315.761 0 313C0 310.239 2.23858 308 5 308C7.76142 308 10 310.239 10 313Z" fill="#9EB9A2"/>
<path d="M32 313C32 315.761 29.7614 318 27 318C24.2386 318 22 315.761 22 313C22 310.239 24.2386 308 27 308C29.7614 308 32 310.239 32 313Z" fill="#9EB9A2"/>
<path d="M54 313C54 315.761 51.7614 318 49 318C46.2386 318 44 315.761 44 313C44 310.239 46.2386 308 49 308C51.7614 308 54 310.239 54 313Z" fill="#9EB9A2"/>
<path d="M76 313C76 315.761 73.7614 318 71 318C68.2386 318 66 315.761 66 313C66 310.239 68.2386 308 71 308C73.7614 308 76 310.239 76 313Z" fill="#9EB9A2"/>
<path d="M98 313C98 315.761 95.7614 318 93 318C90.2386 318 88 315.761 88 313C88 310.239 90.2386 308 93 308C95.7614 308 98 310.239 98 313Z" fill="#9EB9A2"/>
<path d="M120 313C120 315.761 117.761 318 115 318C112.239 318 110 315.761 110 313C110 310.239 112.239 308 115 308C117.761 308 120 310.239 120 313Z" fill="#9EB9A2"/>
<path d="M142 313C142 315.761 139.761 318 137 318C134.239 318 132 315.761 132 313C132 310.239 134.239 308 137 308C139.761 308 142 310.239 142 313Z" fill="#9EB9A2"/>
</svg>
