<svg width="98" height="32" viewBox="0 0 98 32" fill="none" xmlns="http://www.w3.org/2000/svg">
<path d="M93 7.47465e-06C95.7614 7.83676e-06 98 2.23858 98 5.00001C98 7.76143 95.7614 10 93 10C90.2386 10 88 7.76143 88 5.00001C88 2.23858 90.2386 7.11253e-06 93 7.47465e-06Z" fill="#FFA9AC"/>
<path d="M93 22C95.7614 22 98 24.2386 98 27C98 29.7614 95.7614 32 93 32C90.2386 32 88 29.7614 88 27C88 24.2386 90.2386 22 93 22Z" fill="#FFA9AC"/>
<path d="M71 4.58969e-06C73.7614 4.95181e-06 76 2.23858 76 5.00001C76 7.76143 73.7614 10 71 10C68.2386 10 66 7.76143 66 5C66 2.23858 68.2386 4.22758e-06 71 4.58969e-06Z" fill="#FFA9AC"/>
<path d="M71 22C73.7614 22 76 24.2386 76 27C76 29.7614 73.7614 32 71 32C68.2386 32 66 29.7614 66 27C66 24.2386 68.2386 22 71 22Z" fill="#FFA9AC"/>
<path d="M49 1.70474e-06C51.7614 2.06686e-06 54 2.23858 54 5C54 7.76143 51.7614 10 49 10C46.2386 10 44 7.76142 44 5C44 2.23858 46.2386 1.34263e-06 49 1.70474e-06Z" fill="#FFA9AC"/>
<path d="M49 22C51.7614 22 54 24.2386 54 27C54 29.7614 51.7614 32 49 32C46.2386 32 44 29.7614 44 27C44 24.2386 46.2386 22 49 22Z" fill="#FFA9AC"/>
<path d="M27 -1.18021e-06C29.7614 -8.18091e-07 32 2.23858 32 5C32 7.76142 29.7614 10 27 10C24.2386 10 22 7.76142 22 5C22 2.23857 24.2386 -1.54232e-06 27 -1.18021e-06Z" fill="#FFA9AC"/>
<path d="M27 22C29.7614 22 32 24.2386 32 27C32 29.7614 29.7614 32 27 32C24.2386 32 22 29.7614 22 27C22 24.2386 24.2386 22 27 22Z" fill="#FFA9AC"/>
<path d="M5 -4.06516e-06C7.76142 -3.70304e-06 10 2.23857 10 5C10 7.76142 7.76142 10 5 10C2.23858 10 -3.39263e-07 7.76142 -2.18557e-07 5C-9.78513e-08 2.23857 2.23858 -4.42728e-06 5 -4.06516e-06Z" fill="#FFA9AC"/>
<path d="M5 22C7.76142 22 10 24.2386 10 27C10 29.7614 7.76142 32 5 32C2.23858 32 -1.30091e-06 29.7614 -1.18021e-06 27C-1.0595e-06 24.2386 2.23858 22 5 22Z" fill="#FFA9AC"/>
</svg>
