<svg width="32" height="32" viewBox="0 0 32 32" fill="none" xmlns="http://www.w3.org/2000/svg">
<path d="M16 22C15.4704 21.9978 14.9633 21.7856 14.59 21.41L4.58998 11.41C4.26233 11.0274 4.09112 10.5353 4.11056 10.0319C4.13 9.52856 4.33867 9.05108 4.69486 8.69489C5.05105 8.3387 5.52852 8.13003 6.03188 8.11059C6.53523 8.09115 7.02738 8.26236 7.40998 8.59001L16 17.17L24.59 8.59001C24.9726 8.26236 25.4647 8.09115 25.9681 8.11059C26.4714 8.13003 26.9489 8.3387 27.3051 8.69489C27.6613 9.05108 27.87 9.52856 27.8894 10.0319C27.9089 10.5353 27.7376 11.0274 27.41 11.41L17.41 21.41C17.0366 21.7856 16.5296 21.9978 16 22Z" fill="#FAFAFA"/>
</svg>
