<svg width="108" height="38" viewBox="0 0 108 38" fill="none" xmlns="http://www.w3.org/2000/svg">
<path d="M11.744 8.28391C11.68 7.93191 11.616 7.77191 11.424 7.67591C11.04 7.45191 10.048 7.16391 8.608 7.16391C5.664 7.16391 4.224 8.47591 4.224 10.4919C4.224 12.9239 6.464 13.6279 8.96 14.3959C12.096 15.3559 15.648 16.4439 15.648 21.2439C15.648 26.3319 11.68 28.2199 6.976 28.2199C4.064 28.2199 1.088 27.4839 0 26.9719V21.3399H2.72L3.36 24.2199C3.456 24.6359 3.488 24.7319 3.904 24.8599C4.352 24.9879 5.568 25.3399 7.168 25.3399C10.176 25.3399 11.936 24.1879 11.936 21.7239C11.936 19.1639 9.728 18.4599 7.264 17.7239C4.096 16.7959 0.512 15.8999 0.512 11.0359C0.512 6.33191 4.128 4.25191 8.768 4.25191C11.488 4.25191 13.728 4.95591 14.944 5.43591V11.1959L12.192 10.9399L11.744 8.28391Z" fill="#FAFAFA"/>
<path d="M17.907 35L19.219 34.5639C19.667 34.4999 19.763 34.4039 19.763 33.8919V14.3159C19.763 13.9639 19.667 13.7719 19.347 13.6439L17.587 13.0359L17.907 10.9879H22.675L22.963 12.7799L23.059 12.8119C24.595 11.5959 26.483 10.6679 28.691 10.6679C32.307 10.6679 34.771 12.9399 34.771 18.7319C34.771 22.8599 33.459 27.9159 28.179 27.9159C26.419 27.9159 24.755 27.3079 23.379 26.2519V33.8919C23.379 34.4039 23.443 34.4999 23.923 34.5319L81.7181 35.0272C81.9049 35.0288 82.0891 35.0708 82.2581 35.1504C82.711 35.3638 83 35.8195 83 36.3201V36.691C83 37.1868 82.7199 37.6401 82.2764 37.8618C82.0946 37.9527 81.8942 38 81.691 38H17.907V35ZM23.443 23.2759C24.403 24.1399 25.779 24.9719 27.379 24.9719C29.939 24.9719 30.995 22.6359 30.995 18.9559C30.995 15.0199 29.523 13.6759 27.635 13.6759C25.907 13.6759 24.243 14.7319 23.443 15.3719V23.2759Z" fill="#FAFAFA"/>
<path d="M37.0415 25.8199L38.9615 25.5639C39.4095 25.4999 39.4735 25.4039 39.4735 24.9239V14.6199C39.4735 14.2679 39.3775 14.0439 39.0575 13.9479L37.2975 13.3399L37.6175 11.2919H43.1535V24.9239C43.1535 25.4359 43.1855 25.4999 43.6655 25.5639L45.5535 25.7879V27.8359H37.0415V25.8199Z" fill="#FAFAFA"/>
<path d="M47.1755 25.7559L48.7115 25.5639C49.1595 25.4999 49.2235 25.4039 49.2235 24.9239V14.6199C49.2235 14.2679 49.1275 14.0759 48.8075 13.9479L47.0475 13.3399L47.3675 11.2919H52.1355L52.4875 13.6279L52.5835 13.6599C53.6395 12.2839 55.1435 10.9719 57.2875 10.9719C58.0235 10.9719 59.2075 11.0999 59.7835 11.2599V16.5079L56.9035 16.3799L56.5195 14.3959C56.4555 14.1079 56.4235 14.0439 56.1355 14.0439C54.9195 14.0439 53.5435 15.0999 52.9035 15.7079V24.8919C52.9035 25.4039 52.9675 25.4999 53.4475 25.5319L56.4555 25.7879V27.8359H47.1755V25.7559Z" fill="#FAFAFA"/>
<path d="M82.9165 27.0999C81.6045 27.7079 79.8765 28.2199 78.1805 28.2199C74.8205 28.2199 73.4125 26.7479 73.4125 23.5799V14.2359C73.4125 14.0439 73.4125 13.9159 73.1565 13.9159H70.8525V11.6439C73.3485 11.3239 74.3405 9.62791 74.7565 6.81191H77.0925V10.9719C77.0925 11.1959 77.0925 11.2919 77.3485 11.2919H81.9885V13.9159H77.0925V22.6199C77.0925 24.6039 77.6045 25.3399 79.3965 25.3399C80.3565 25.3399 81.3485 25.0839 82.1805 24.7959L82.9165 27.0999Z" fill="#FAFAFA"/>
<path d="M93.7398 14.2039C93.7078 13.9799 93.6437 13.8519 93.3877 13.7559C92.9717 13.6279 92.0757 13.4359 91.0837 13.4359C89.0357 13.4359 88.0437 14.1719 88.0437 15.4519C88.0437 17.1479 89.8358 17.5319 91.8518 18.0119C94.3798 18.6199 97.2278 19.3879 97.2278 23.0359C97.2278 26.8119 94.0917 28.2199 90.4437 28.2199C87.6917 28.2199 85.0037 27.4839 84.4277 27.0999V22.7479L87.0837 22.9079L87.4037 24.8599C87.4357 25.1159 87.4998 25.2119 87.7878 25.3079C88.2038 25.4679 89.2277 25.7559 90.6677 25.7559C92.6517 25.7559 93.8678 25.1799 93.8678 23.5479C93.8678 21.7559 91.8198 21.4679 89.6758 20.9879C87.2438 20.4439 84.6837 19.6759 84.6837 16.2839C84.6837 12.4119 87.9157 10.9719 91.3717 10.9719C93.7397 10.9719 95.9797 11.5799 96.7477 11.8999V16.2199L94.0918 16.0599L93.7398 14.2039Z" fill="#FAFAFA"/>
<path d="M43.1535 7.67591C43.1535 9.21191 42.2575 10.0759 40.7535 10.0759C39.2175 10.0759 38.3535 9.21191 38.3535 7.67591C38.3535 6.17191 39.2175 5.33991 40.7535 5.33991C42.2575 5.33991 43.1535 6.17191 43.1535 7.67591Z" fill="#FFA9AC"/>
<path fill-rule="evenodd" clip-rule="evenodd" d="M63.0865 25.5639L61.1665 25.8199V27.8359H69.6785V25.7879L67.7905 25.5639C67.3105 25.4999 67.2785 25.4359 67.2785 24.9239V11.2919H61.7425L61.4225 13.3399L63.1825 13.9479C63.5025 14.0439 63.5985 14.2679 63.5985 14.6199V24.9239C63.5985 25.4039 63.5345 25.4999 63.0865 25.5639Z" fill="#FAFAFA"/>
<path d="M67.2785 2.336C67.2785 3.872 66.3825 4.736 64.8785 4.736C63.3425 4.736 62.4785 3.872 62.4785 2.336C62.4785 0.831999 63.3425 0 64.8785 0C66.3825 0 67.2785 0.831999 67.2785 2.336Z" fill="#9EB9A2"/>
<path d="M88 36.4797C88 37.4527 87.44 38 86.5 38C85.54 38 85 37.4527 85 36.4797C85 35.527 85.54 35 86.5 35C87.44 35 88 35.527 88 36.4797Z" fill="#FFA9AC"/>
<path d="M93 36.4797C93 37.4527 92.44 38 91.5 38C90.54 38 90 37.4527 90 36.4797C90 35.527 90.54 35 91.5 35C92.44 35 93 35.527 93 36.4797Z" fill="#9EB9A2"/>
<path d="M98 36.4797C98 37.4527 97.44 38 96.5 38C95.54 38 95 37.4527 95 36.4797C95 35.527 95.54 35 96.5 35C97.44 35 98 35.527 98 36.4797Z" fill="#FFA9AC"/>
<path d="M103 36.4797C103 37.4527 102.44 38 101.5 38C100.54 38 100 37.4527 100 36.4797C100 35.527 100.54 35 101.5 35C102.44 35 103 35.527 103 36.4797Z" fill="#9EB9A2"/>
<path d="M108 36.4797C108 37.4527 107.44 38 106.5 38C105.54 38 105 37.4527 105 36.4797C105 35.527 105.54 35 106.5 35C107.44 35 108 35.527 108 36.4797Z" fill="#FFA9AC"/>
</svg>
