<svg width="15" height="15" viewBox="0 0 15 15" fill="none" xmlns="http://www.w3.org/2000/svg">
<path d="M10.956 9.12898C10.956 9.75898 11.1352 10.0102 11.604 10.0102C12.6487 10.0102 13.314 8.67898 13.314 6.46498C13.314 3.08098 10.848 1.46098 7.76921 1.46098C4.60196 1.46098 1.72121 3.58498 1.72121 7.59898C1.72121 11.433 4.24121 13.521 8.11121 13.521C9.42521 13.521 10.3072 13.377 11.6565 12.927L11.946 14.1322C10.614 14.565 9.19046 14.6902 8.09321 14.6902C3.01721 14.6902 0.298462 11.9002 0.298462 7.59823C0.298462 3.26023 3.44921 0.308228 7.78721 0.308228C12.3052 0.308228 14.6985 3.00823 14.6985 6.32023C14.6985 9.12823 13.8172 11.2702 11.0452 11.2702C9.78446 11.2702 8.95721 10.7662 8.84921 9.64948C8.52521 10.8915 7.66121 11.2702 6.49046 11.2702C4.92446 11.2702 3.61046 10.0635 3.61046 7.63423C3.61046 5.18623 4.76321 3.67423 6.83321 3.67423C7.93121 3.67423 8.61521 4.10623 8.91971 4.79023L9.44246 3.83623H10.9545V9.12898H10.956ZM8.74271 6.75298C8.74271 5.76373 8.00396 5.34898 7.39196 5.34898C6.72596 5.34898 5.98871 5.88823 5.98871 7.47298C5.98871 8.73298 6.54671 9.43498 7.39196 9.43498C7.98596 9.43498 8.74271 9.05698 8.74271 8.01298V6.75298Z" fill="#FAFAFA"/>
</svg>
