<svg width="32" height="32" viewBox="0 0 32 32" fill="none" xmlns="http://www.w3.org/2000/svg">
<path d="M3.19996 5.12C3.03035 5.1176 2.86195 5.14894 2.70455 5.21219C2.54715 5.27544 2.40389 5.36934 2.2831 5.48844C2.1623 5.60753 2.06639 5.74945 2.00092 5.90594C1.93545 6.06243 1.90173 6.23037 1.90173 6.4C1.90173 6.56963 1.93545 6.73757 2.00092 6.89406C2.06639 7.05055 2.1623 7.19247 2.2831 7.31157C2.40389 7.43066 2.54715 7.52456 2.70455 7.58781C2.86195 7.65106 3.03035 7.6824 3.19996 7.68H28.8C28.9696 7.6824 29.138 7.65106 29.2954 7.58781C29.4528 7.52456 29.596 7.43066 29.7168 7.31157C29.8376 7.19247 29.9335 7.05055 29.999 6.89406C30.0645 6.73757 30.0982 6.56963 30.0982 6.4C30.0982 6.23037 30.0645 6.06243 29.999 5.90594C29.9335 5.74945 29.8376 5.60753 29.7168 5.48844C29.596 5.36934 29.4528 5.27544 29.2954 5.21219C29.138 5.14894 28.9696 5.1176 28.8 5.12H3.19996ZM3.19996 14.72C3.03035 14.7176 2.86195 14.7489 2.70455 14.8122C2.54715 14.8754 2.40389 14.9693 2.2831 15.0884C2.1623 15.2075 2.06639 15.3494 2.00092 15.5059C1.93545 15.6624 1.90173 15.8304 1.90173 16C1.90173 16.1696 1.93545 16.3376 2.00092 16.4941C2.06639 16.6506 2.1623 16.7925 2.2831 16.9116C2.40389 17.0307 2.54715 17.1246 2.70455 17.1878C2.86195 17.2511 3.03035 17.2824 3.19996 17.28H28.8C28.9696 17.2824 29.138 17.2511 29.2954 17.1878C29.4528 17.1246 29.596 17.0307 29.7168 16.9116C29.8376 16.7925 29.9335 16.6506 29.999 16.4941C30.0645 16.3376 30.0982 16.1696 30.0982 16C30.0982 15.8304 30.0645 15.6624 29.999 15.5059C29.9335 15.3494 29.8376 15.2075 29.7168 15.0884C29.596 14.9693 29.4528 14.8754 29.2954 14.8122C29.138 14.7489 28.9696 14.7176 28.8 14.72H3.19996ZM3.19996 24.32C3.03035 24.3176 2.86195 24.3489 2.70455 24.4122C2.54715 24.4754 2.40389 24.5693 2.2831 24.6884C2.1623 24.8075 2.06639 24.9494 2.00092 25.1059C1.93545 25.2624 1.90173 25.4304 1.90173 25.6C1.90173 25.7696 1.93545 25.9376 2.00092 26.0941C2.06639 26.2506 2.1623 26.3925 2.2831 26.5116C2.40389 26.6307 2.54715 26.7246 2.70455 26.7878C2.86195 26.8511 3.03035 26.8824 3.19996 26.88H28.8C28.9696 26.8824 29.138 26.8511 29.2954 26.7878C29.4528 26.7246 29.596 26.6307 29.7168 26.5116C29.8376 26.3925 29.9335 26.2506 29.999 26.0941C30.0645 25.9376 30.0982 25.7696 30.0982 25.6C30.0982 25.4304 30.0645 25.2624 29.999 25.1059C29.9335 24.9494 29.8376 24.8075 29.7168 24.6884C29.596 24.5693 29.4528 24.4754 29.2954 24.4122C29.138 24.3489 28.9696 24.3176 28.8 24.32H3.19996Z" fill="#FAFAFA"/>
</svg>
