<svg width="15" height="15" viewBox="0 0 15 15" fill="none" xmlns="http://www.w3.org/2000/svg">
<path d="M7.375 7C7.86945 7 8.3528 6.85338 8.76393 6.57868C9.17505 6.30397 9.49548 5.91353 9.6847 5.45671C9.87392 4.99989 9.92343 4.49723 9.82696 4.01228C9.7305 3.52732 9.4924 3.08187 9.14277 2.73223C8.79314 2.3826 8.34768 2.1445 7.86273 2.04804C7.37777 1.95157 6.87511 2.00108 6.41829 2.1903C5.96148 2.37952 5.57103 2.69995 5.29633 3.11108C5.02162 3.5222 4.875 4.00555 4.875 4.5C4.875 5.16304 5.13839 5.79893 5.60723 6.26777C6.07607 6.73661 6.71196 7 7.375 7ZM11.125 13.25C11.2908 13.25 11.4497 13.1842 11.5669 13.0669C11.6842 12.9497 11.75 12.7908 11.75 12.625C11.75 11.4647 11.2891 10.3519 10.4686 9.53141C9.64812 8.71094 8.53532 8.25 7.375 8.25C6.21468 8.25 5.10188 8.71094 4.28141 9.53141C3.46094 10.3519 3 11.4647 3 12.625C3 12.7908 3.06585 12.9497 3.18306 13.0669C3.30027 13.1842 3.45924 13.25 3.625 13.25H11.125Z" fill="#FAFAFA"/>
</svg>
